<?xml version="1.0" encoding="UTF-8"?>
<!--https://github.com/muchdogesec/stix2icons/-->
<svg width="200" height="200" xmlns="http://www.w3.org/2000/svg" viewBox="0 0 85 85" id="attack-flow" data-type="normal">
  <path style="fill:rgb(255,255,255)" d="M 26.289200000000005,34.39999999999999 C 30.104300000000002,34.39999999999999 32.1212,32.38309999999999 33.592699999999994,30.9089 C 34.9157,29.5859 35.566399999999994,29.0 37.0811,28.999999999999996 C 38.5958,28.999999999999996 39.2465,29.5859 40.56949999999999,30.9089 C 42.041,32.3831 44.0579,34.4 47.87569999999999,34.39999999999999 C 51.69619999999998,34.39999999999999 53.71579999999999,32.38309999999999 55.19269999999999,30.9089 C 56.518399999999986,29.5859 57.169099999999986,29.0 58.68919999999999,28.999999999999996 C 60.2093,28.999999999999996 60.859999999999985,29.5859 62.18569999999999,30.9089 C 63.65989999999998,32.3831 65.67949999999998,34.4 69.49999999999999,34.39999999999999 L 69.49999999999999,28.999999999999996 C 67.97989999999999,28.999999999999996 67.32919999999999,28.4141 66.00349999999997,27.0911 C 64.52929999999998,25.616899999999998 62.50969999999998,23.6 58.68919999999998,23.599999999999998 C 54.868699999999976,23.599999999999998 52.85179999999998,25.616899999999998 51.37489999999998,27.0884 C 50.049199999999985,28.414099999999998 49.40119999999999,28.999999999999996 47.87569999999999,28.999999999999996 C 46.35829999999999,28.999999999999996 45.71029999999999,28.4141 44.387299999999996,27.0911 C 42.91579999999999,25.616899999999998 40.89889999999999,23.6 37.0811,23.599999999999998 C 33.263299999999994,23.599999999999998 31.246399999999998,25.616899999999998 29.774900000000002,27.0911 C 28.4519,28.4141 27.803900000000002,28.999999999999996 26.289200000000005,28.999999999999996 C 24.774500000000007,28.999999999999996 24.1265,28.4141 22.803500000000003,27.0911 C 21.332,25.616899999999998 19.3151,23.6 15.500000000000005,23.599999999999998 L 15.500000000000005,28.999999999999996 C 17.014700000000005,28.999999999999996 17.662700000000005,29.5859 18.9857,30.9089 C 20.4572,32.3831 22.474100000000004,34.4 26.289200000000005,34.4 M 26.289200000000005,47.89999999999999 C 30.104300000000002,47.89999999999999 32.1212,45.88309999999999 33.592699999999994,44.40889999999999 C 34.9157,43.085899999999995 35.566399999999994,42.499999999999986 37.0811,42.49999999999999 C 38.5958,42.49999999999999 39.2465,43.0859 40.56949999999999,44.40889999999999 C 42.041,45.883099999999985 44.0579,47.899999999999984 47.87569999999999,47.89999999999999 C 51.69619999999998,47.89999999999999 53.71579999999999,45.88309999999999 55.19269999999999,44.40889999999999 C 56.518399999999986,43.085899999999995 57.169099999999986,42.499999999999986 58.68919999999999,42.49999999999999 C 60.2093,42.49999999999999 60.859999999999985,43.0859 62.18569999999999,44.40889999999999 C 63.65989999999998,45.883099999999985 65.67949999999998,47.899999999999984 69.49999999999999,47.89999999999999 L 69.49999999999999,42.49999999999999 C 67.97989999999999,42.49999999999999 67.32919999999999,41.9141 66.00349999999997,40.59109999999999 C 64.52929999999998,39.116899999999994 62.509699999999974,37.099999999999994 58.68919999999998,37.099999999999994 C 54.86869999999998,37.099999999999994 52.85179999999998,39.116899999999994 51.37489999999998,40.58839999999999 C 50.049199999999985,41.91409999999999 49.40119999999999,42.499999999999986 47.87569999999999,42.49999999999999 C 46.35829999999999,42.49999999999999 45.71029999999999,41.9141 44.387299999999996,40.59109999999999 C 42.91579999999999,39.116899999999994 40.89889999999999,37.099999999999994 37.0811,37.099999999999994 C 33.263299999999994,37.099999999999994 31.246399999999998,39.116899999999994 29.774900000000002,40.59109999999999 C 28.4519,41.9141 27.803900000000002,42.49999999999999 26.289200000000005,42.49999999999999 C 24.774500000000007,42.49999999999999 24.1265,41.9141 22.803500000000003,40.59109999999999 C 21.332,39.116899999999994 19.3151,37.099999999999994 15.500000000000005,37.099999999999994 L 15.500000000000005,42.49999999999999 C 17.014700000000005,42.49999999999999 17.662700000000005,43.0859 18.9857,44.40889999999999 C 20.4572,45.883099999999985 22.474100000000004,47.899999999999984 26.289200000000005,47.899999999999984 M 26.289200000000005,61.399999999999984 C 30.104300000000002,61.399999999999984 32.1212,59.383099999999985 33.592699999999994,57.90889999999999 C 34.9157,56.585899999999995 35.566399999999994,55.999999999999986 37.0811,55.999999999999986 C 38.5958,55.999999999999986 39.2465,56.58589999999998 40.56949999999999,57.90889999999999 C 42.041,59.383099999999985 44.0579,61.399999999999984 47.87569999999999,61.399999999999984 C 51.69619999999998,61.399999999999984 53.71579999999999,59.383099999999985 55.19269999999999,57.90889999999999 C 56.518399999999986,56.585899999999995 57.169099999999986,55.999999999999986 58.68919999999999,55.999999999999986 C 60.2093,55.999999999999986 60.859999999999985,56.58589999999998 62.18569999999999,57.90889999999999 C 63.65989999999998,59.383099999999985 65.67949999999998,61.399999999999984 69.49999999999999,61.399999999999984 L 69.49999999999999,55.999999999999986 C 67.97989999999999,55.999999999999986 67.32919999999999,55.41409999999999 66.00349999999997,54.09109999999998 C 64.52929999999998,52.61689999999999 62.509699999999974,50.59999999999999 58.68919999999998,50.59999999999999 C 54.86869999999998,50.59999999999999 52.85179999999998,52.61689999999999 51.37489999999998,54.08839999999999 C 50.049199999999985,55.41409999999999 49.40119999999999,55.999999999999986 47.87569999999999,55.999999999999986 C 46.35829999999999,55.999999999999986 45.71029999999999,55.41409999999999 44.387299999999996,54.09109999999998 C 42.91579999999999,52.61689999999999 40.89889999999999,50.59999999999999 37.0811,50.59999999999999 C 33.263299999999994,50.59999999999999 31.246399999999998,52.61689999999999 29.774900000000002,54.09109999999998 C 28.4519,55.414099999999976 27.803900000000002,55.999999999999986 26.289200000000005,55.999999999999986 C 24.774500000000007,55.999999999999986 24.1265,55.41409999999999 22.803500000000003,54.09109999999998 C 21.332,52.61689999999999 19.3151,50.59999999999999 15.500000000000005,50.59999999999999 L 15.500000000000005,55.999999999999986 C 17.014700000000005,55.999999999999986 17.662700000000005,56.58589999999998 18.9857,57.90889999999999 C 20.4572,59.383099999999985 22.474100000000004,61.399999999999984 26.289200000000005,61.399999999999984"/>
</svg>