<?xml version="1.0" encoding="UTF-8"?>
<!--https://github.com/muchdogesec/stix2icons/-->
<svg width="200" height="200" xmlns="http://www.w3.org/2000/svg" viewBox="0 0 85 85" id="attack-action" data-type="normal">
  <path style="fill:rgb(255,255,255)" d="M 68.7326708284928,30.20322360285442 L 61.765789858854646,23.23634263321626 A 2.617112162967534,2.617112162967534 0.0 0,0 58.064634343734376,26.93749814833653 L 60.5705343425011,29.439043846497235 L 56.43394876677844,29.439043846497235 A 16.857674796221335,16.857674796221335 0.0 0,0 49.90249785774267,30.984820561635694 C 46.747807068678384,32.441334114350674 42.75926771356054,35.556836197960735 41.670692562054576,42.07086990457242 C 41.08503913054437,45.591321944542706 39.36726754146795,48.03626173482509 36.56962940209763,49.340374766329234 A 10.75512249687891,10.75512249687891 0.0 0,1 34.22701567605681,50.10673167298944 A 9.57946133325247,9.57946133325247 0.0 1,0 34.342404642116435,55.39285260870239 A 16.121797993803302,16.121797993803302 0.0 0,0 38.52253322389933,54.18671134083379 C 41.68375546387265,52.7824493953911 45.68753487111157,49.688718814811146 46.81529872807175,42.93084427426214 C 47.377003506248826,39.56061560519968 49.096952245628245,37.16357312158355 51.92942478984677,35.80067703189808 A 12.002629620504743,12.002629620504743 0.0 0,1 56.43394876677844,34.664204573725854 L 60.5705343425011,34.664204573725854 L 58.06245719343135,37.170104572492576 A 2.6171121629675373,2.6171121629675373 0.0 0,0 61.763612708551626,40.87126008761285 L 68.73049367818979,33.90437911797469 A 2.6125803636143097,2.6125803636143097 0.0 0,0 68.7326708284928,30.20322360285442 L 68.73267082849281,30.20322360285442 M 25.08298440340672,57.306567725049874 A 4.35430060602385,4.35430060602385 0.0 1,1 29.43728500943057,52.952267119026025 A 4.35430060602385,4.35430060602385 0.0 0,1 25.08298440340672,57.306567725049874"/>
</svg>