<?xml version="1.0" encoding="UTF-8"?>
<!--https://github.com/muchdogesec/stix2icons/-->
<svg width="200" height="200" xmlns="http://www.w3.org/2000/svg" viewBox="0 0 85 85" id="x-mitre-analytic" data-type="normal">
  <path style="fill:rgb(255,255,255)" d="M 39.892651121523436,16.288109086164038 C 39.806384091235266,16.28719257057001 39.71920054535306,16.28925473065658 39.631215048326084,16.291546019641654 C 39.04808200162385,16.308386993681975 38.422789237596184,16.402673535417915 37.755222191793834,16.581623205152475 C 30.633666897274306,18.490266929722072 33.29591556903591,26.87661374400441 36.15475683571717,27.433167838479747 C 36.723340197364166,27.543607967560483 37.88468001945072,30.84409518611544 36.77420681283289,32.92859534028974 L 24.716298528862286,36.15770890695953 L 27.931320668273848,48.158334966303194 C 27.39745033475078,50.3300186663597 23.96624507959715,50.654465186646675 22.038354527552897,49.07485056033421 C 20.544434109282335,47.84992746891175 14.135355124672671,50.152100076668425 15.762513997425494,56.224588709370195 C 17.38932917683055,62.29696277762272 24.538952761417278,60.026180828961614 25.013593274676097,57.588593042186865 C 25.129990755118037,56.98770250585028 28.279825722904143,54.755185083239965 30.2153920930484,56.68994950223945 L 33.4375172283137,68.71211367804284 L 46.56591572611254,65.19269379696372 C 49.940984401131765,63.53838314973774 47.22168263364173,61.085558291212216 44.918937203638805,60.21635781472305 C 43.097362460502154,59.53046045704007 41.87679281815134,52.77997941365386 47.994305279409886,51.14090583817864 C 48.567700347925545,50.98716034727994 49.10283089039041,50.915213873148495 49.59820756896417,50.90811087729476 C 54.38585590328372,50.83822656324989 55.55498610791953,57.03914194356527 53.844195187211376,58.52664675267761 C 53.37047118954659,58.93850594774529 52.30948982500644,63.47468531595257 55.65935432118982,62.751325383363586 L 56.267920675626414,62.57947870948277 C 56.161719431168066,62.61648302659179 56.059184249085845,62.64821737903511 55.96008600048125,62.67617110465305 L 69.5,59.04951889907231 L 66.02365635184034,46.06787746076769 C 64.37644870046809,43.98990748020086 61.19075506006552,45.50387667709085 60.331292561762936,47.78634419957585 C 59.64470781738444,49.60906458720505 54.524249757982396,50.59523536638242 52.884603360260904,44.47841029181939 C 51.244956962539405,38.36181434615487 56.60611492982385,37.49089540292689 58.526902486014365,39.09388117688715 C 60.16059153237465,40.457770945254566 64.39317511005915,40.446543629227676 63.15244212463967,35.60310240812151 L 63.775443599682255,37.676146117370415 L 60.77878130054857,26.49545782133675 L 44.88296396657308,30.755880560189944 C 42.69363734133148,29.7838012082708 41.91436995750661,27.15225580890923 43.69092087208649,25.66486556424614 C 46.85656573386964,23.014646159656195 45.31773605149155,16.34241263511037 39.89242199262493,16.28856734396105 L 39.892651121523436,16.28810908616404 M 55.659468885639065,62.75109625446508 L 55.219083142707156,62.876429761948835 L 55.9385478840215,62.68304497160829 C 55.84265743999601,62.70973848828445 55.74917284940484,62.731734862541195 55.659468885639065,62.75109625446508 M 62.92709385295729,34.84754986529219 A 10.476575190919332,10.476575190919332 0.0 0,1 63.152785817987436,35.59932178129613 L 62.92709385295729,34.84754986529219"/>
</svg>