<?xml version="1.0" encoding="UTF-8"?>
<!--https://github.com/muchdogesec/stix2icons/-->
<svg width="200" height="200" xmlns="http://www.w3.org/2000/svg" viewBox="0 0 85 85" id="x-mitre-data-component" data-type="normal">
  <path style="fill:rgb(255,255,255)" d="M 33.15384615384615,15.499999999999995 C 27.039903846153848,15.499999999999995 22.769230769230766,20.624807692307687 22.76923076923077,27.961538461538456 C 22.76923076923077,35.29826923076923 27.03990384615385,40.42307692307693 33.15384615384615,40.42307692307693 C 39.267788461538466,40.42307692307693 43.53846153846154,35.29826923076923 43.53846153846154,27.961538461538456 C 43.53846153846154,20.624807692307684 39.267788461538466,15.499999999999995 33.15384615384615,15.499999999999993 M 33.15384615384615,34.19230769230769 C 29.11682692307693,34.19230769230769 29.0,28.600192307692307 29.0,27.961538461538456 C 29.0,27.32288461538461 29.11682692307693,21.730769230769226 33.15384615384615,21.730769230769226 C 37.190865384615385,21.730769230769226 37.30769230769231,27.32288461538461 37.30769230769231,27.961538461538456 C 37.30769230769231,28.600192307692303 37.190865384615385,34.19230769230769 33.15384615384615,34.19230769230769 M 46.9835576923077,23.12490384615384 A 3.115384615384616,3.115384615384616 0.0 0,1 48.375096153846165,18.945096153846148 L 54.60586538461539,15.829711538461533 A 3.115384615384616,3.115384615384616 0.0 0,1 59.11538461538462,18.61538461538461 L 59.11538461538462,37.30769230769231 A 3.1153846153846168,3.1153846153846168 0.0 0,1 52.88461538461539,37.30769230769231 L 52.88461538461539,23.65711538461538 L 51.16336538461539,24.516442307692305 A 3.115384615384616,3.115384615384616 0.0 0,1 46.9835576923077,23.124903846153842 M 51.84615384615385,44.57692307692308 C 45.732211538461534,44.57692307692308 41.46153846153846,49.70173076923078 41.46153846153846,57.03846153846154 C 41.46153846153846,64.3751923076923 45.732211538461534,69.5 51.84615384615385,69.5 C 57.96009615384616,69.5 62.23076923076923,64.3751923076923 62.23076923076923,57.03846153846154 C 62.23076923076923,49.70173076923077 57.96009615384616,44.57692307692308 51.84615384615385,44.57692307692308 M 51.84615384615385,63.269230769230774 C 47.809134615384615,63.269230769230774 47.69230769230769,57.677115384615384 47.69230769230769,57.03846153846154 C 47.69230769230769,56.39980769230768 47.809134615384615,50.80769230769231 51.84615384615385,50.80769230769231 C 55.88317307692308,50.80769230769231 56.0,56.39980769230768 56.0,57.03846153846154 C 56.0,57.677115384615384 55.88317307692308,63.269230769230774 51.84615384615385,63.269230769230774 M 36.26923076923077,47.69230769230769 L 36.26923076923077,66.38461538461539 A 3.115384615384616,3.115384615384616 0.0 0,1 30.03846153846154,66.38461538461539 L 30.03846153846154,52.73403846153847 L 28.31721153846154,53.59336538461539 A 3.115384615384616,3.115384615384616 0.0 1,1 25.52894230769231,48.022019230769224 L 31.759711538461538,44.90663461538461 A 3.115384615384616,3.115384615384616 0.0 0,1 36.26923076923077,47.69230769230769"/>
</svg>