<?xml version="1.0" encoding="UTF-8"?>
<!--https://github.com/muchdogesec/stix2icons/-->
<svg width="200" height="200" xmlns="http://www.w3.org/2000/svg" viewBox="0 0 85 85" id="x-mitre-detection-strategy" data-type="normal">
  <path style="fill:rgb(255,255,255)" d="M 34.336985703016104,41.067379095294626 A 6.728835477421491,6.728835477421491 0.0 1,1 47.792144961152324,41.067379095294626 A 6.728835477421491,6.728835477421491 0.0 0,1 34.336985703016104,41.067379095294626"/>
  <path style="fill:rgb(255,255,255)" d="M 39.46084698481523,16.10362552676451 A 7.936961593375107,7.936961593375107 0.0 0,1 48.11364213961815,17.829161164311564 L 67.17239675054547,36.88791577523888 A 7.936961593375107,7.936961593375107 0.0 0,1 67.17239675054547,48.11520005447519 L 48.11364213961815,67.1739546654025 A 7.936961593375107,7.936961593375107 0.0 0,1 36.88635786038185,67.1739546654025 L 17.82760324945453,48.11520005447519 A 7.936961593375107,7.936961593375107 0.0 0,1 17.82760324945453,36.88791577523888 L 36.88635786038185,17.826649467604803 A 8.037429461645678,8.037429461645678 0.0 0,1 39.46084698481523,16.106137223471276 M 41.065821180437595,30.57351025443349 A 10.496380537567903,10.496380537567903 0.0 1,0 47.04365934253657,49.69756897973668 L 51.21307587576527,53.879543996499194 A 1.8837725300732058,1.8837725300732058 0.0 1,0 53.88049777834893,51.219657184035825 L 49.70354615499994,47.03014707715301 A 10.496380537567903,10.496380537567903 0.0 0,0 41.06330948373083,30.57351025443349"/>
</svg>