<?xml version="1.0" encoding="UTF-8"?>
<!--https://github.com/muchdogesec/stix2icons/-->
<svg width="200" height="200" xmlns="http://www.w3.org/2000/svg" viewBox="0 0 85 85" id="x-mitre-data-source" data-type="normal">
  <path style="fill:rgb(255,255,255)" d="M 42.50001380748654,63.23214285714286 C 36.189969164629396,63.23214285714286 29.073540593200825,61.832723214285714 23.46380845034368,59.495535714285715 C 21.40626380748654,58.628883928571426 19.644031664629395,57.22705357142857 18.203629878915105,56.120535714285715 A 0.48214285714285715,0.48214285714285715 0.0 0,0 17.428585236057963,56.503839285714285 L 17.428585236057963,58.02017857142857 C 17.428585236057963,61.403616071428566 20.259969164629393,64.4350892857143 25.400817378915107,66.55651785714285 C 29.999254878915103,68.45495535714285 36.07184416462939,69.5 42.50001380748654,69.5 C 48.92818345034369,69.5 54.99956737891511,68.45495535714285 59.59921023605797,66.55651785714285 C 64.74005845034368,64.4375 67.57144237891511,61.403616071428566 67.57144237891511,58.02017857142857 L 67.57144237891511,56.503839285714285 A 0.48214285714285715,0.48214285714285715 0.0 0,0 66.79639773605797,56.120535714285715 C 65.35599595034368,57.22584821428571 63.59376380748653,58.628883928571426 61.53501380748654,59.495535714285715 C 55.925281664629395,61.832723214285714 48.81005845034369,63.23214285714286 42.50001380748654,63.23214285714286 M 67.57144237891511,26.891830357142855 C 67.47380845034368,23.559017857142855 64.65688880748654,20.575758928571425 59.61608523605797,18.47241071428571 C 55.00438880748654,16.555892857142855 48.92938880748654,15.499999999999998 42.50001380748654,15.499999999999998 C 36.070638807486546,15.499999999999998 29.995638807486536,16.555892857142855 25.39479059320082,18.47241071428571 C 20.35880845034368,20.570937499999996 17.541888807486536,23.548169642857143 17.439433450343678,26.87254464285714 L 17.428585236057966,29.0 C 17.428585236057966,29.772633928571427 18.05537095034368,30.98642857142857 19.192022736057964,31.98084821428571 C 20.533585236057963,33.15366071428571 22.52483523605796,34.310803571428565 24.95121916462939,35.32330357142857 C 30.11376380748654,37.48089285714286 36.67452273605796,38.76339285714286 42.50001380748654,38.76339285714286 C 48.32550487891511,38.76339285714286 54.886263807486536,37.47607142857142 60.048808450343685,35.31848214285714 C 62.475192378915104,34.30598214285715 64.4664423789151,33.14883928571429 65.8080048789151,31.97602678571429 C 66.94465666462939,30.987633928571434 67.5714423789151,29.773839285714285 67.57144237891511,29.0 L 67.57144237891511,26.891830357142855"/>
  <path style="fill:rgb(255,255,255)" d="M 61.53501380748654,38.88392857142858 C 55.92648702177225,41.2259375 48.81005845034369,42.62053571428572 42.50001380748654,42.620535714285715 C 36.189969164629396,42.620535714285715 29.073540593200825,41.22593749999999 23.46380845034368,38.88392857142858 C 21.40626380748654,38.02209821428571 19.644031664629395,36.619062500000005 18.203629878915105,35.50892857142858 A 0.48214285714285715,0.48214285714285715 0.0 0,0 17.428585236057963,35.89705357142857 L 17.428585236057963,39.60714285714286 C 17.428585236057963,40.379776785714284 18.05537095034368,41.3525 19.192022736057964,42.34691964285714 C 20.533585236057963,43.52093749999999 22.52483523605796,44.676874999999995 24.95121916462939,45.69058035714285 C 30.11376380748654,47.84455357142856 36.67452273605796,49.12946428571429 42.50001380748654,49.12946428571429 C 48.32550487891511,49.12946428571429 54.886263807486536,47.84214285714285 60.048808450343685,45.685758928571424 C 62.475192378915104,44.67205357142857 64.4664423789151,43.51611607142857 65.8080048789151,42.34209821428571 C 66.94465666462939,41.35129464285715 67.5714423789151,40.379776785714284 67.57144237891511,39.60714285714286 L 67.57144237891511,35.89705357142857 A 0.48214285714285715,0.48214285714285715 0.0 0,0 66.79639773605797,35.51375 C 65.35599595034368,36.6190625 63.59376380748653,38.02209821428572 61.53501380748654,38.88392857142858"/>
  <path style="fill:rgb(255,255,255)" d="M 61.53501380748654,49.25 C 55.925281664629395,51.58959821428571 48.81005845034369,52.986607142857146 42.50001380748654,52.986607142857146 C 36.189969164629396,52.986607142857146 29.073540593200825,51.589598214285715 23.46380845034368,49.25 C 21.40626380748654,48.38575892857142 19.644031664629395,46.982723214285706 18.203629878915105,45.875 A 0.48214285714285715,0.48214285714285715 0.0 0,0 17.428585236057963,46.26071428571428 L 17.428585236057963,49.85267857142858 C 17.428585236057963,50.6253125 18.05537095034368,51.59683035714286 19.190817378915106,52.59004464285714 C 20.532379878915105,53.764062499999994 22.524835236057964,54.92 24.95121916462939,55.93370535714285 C 30.11376380748654,58.08767857142856 36.6733173789151,59.375 42.50001380748654,59.375 C 48.32671023605797,59.375 54.886263807486536,58.08767857142856 60.048808450343685,55.93129464285714 C 62.475192378915104,54.917589285714286 64.4664423789151,53.761651785714285 65.8080048789151,52.58763392857142 C 66.94465666462939,51.593214285714275 67.5714423789151,50.620491071428575 67.57144237891511,49.85267857142858 L 67.57144237891511,46.26071428571428 A 0.48214285714285715,0.48214285714285715 0.0 0,0 66.79639773605797,45.877410714285716 C 65.35599595034368,46.98272321428571 63.59376380748653,48.38575892857143 61.53501380748654,49.25000000000001"/>
</svg>