<?xml version="1.0" encoding="UTF-8"?>
<!--https://github.com/muchdogesec/stix2icons/-->
<svg xmlns="http://www.w3.org/2000/svg" width="200px" height="200px" viewBox="0 0 85 85" id="x-mitre-matrix">
<path style="fill:rgb(255,255,255)" d="M 63.750 74.375 H 21.250 c -5.865 0.000 -10.625 -4.760 -10.625 -10.625 V 21.250 c 0.000 -5.865 4.760 -10.625 10.625 -10.625 h 42.500 c 5.865 0.000 10.625 4.760 10.625 10.625 v 42.500 C 74.375 69.615 69.615 74.375 63.750 74.375 z M 55.760 67.278 H 63.750 c 1.955 0.000 3.528 -1.573 3.528 -3.528 v -7.990 h -11.518 V 67.278 z M 36.295 67.278 h 12.410 v -11.518 H 36.295 V 67.278 z M 17.723 55.760 V 63.750 c 0.000 1.955 1.573 3.528 3.528 3.528 h 7.990 v -11.518 H 17.723 z M 55.760 48.705 h 11.518 V 36.295 h -11.518 V 48.705 z M 36.295 48.705 h 12.410 V 36.295 H 36.295 V 48.705 z M 17.723 48.705 h 11.518 V 36.295 H 17.723 V 48.705 z M 55.760 29.240 h 11.518 V 21.250 c 0.000 -1.955 -1.573 -3.528 -3.528 -3.528 h -7.990 V 29.240 z M 36.295 29.240 h 12.410 V 17.723 H 36.295 V 29.240 z M 17.723 29.240 h 11.518 V 17.723 H 21.250 c -1.955 0.000 -3.528 1.573 -3.528 3.528 V 29.240 z" />
</svg>