<?xml version="1.0" encoding="UTF-8"?>
<!--https://github.com/muchdogesec/stix2icons/-->
<svg width="200" height="200" xmlns="http://www.w3.org/2000/svg" viewBox="0 0 85 85" id="x-mitre-tactic" data-type="normal">
  <path style="fill:rgb(255,255,255)" d="M 42.5,15.499999999999998 C 44.366796875000006,15.499999999999998 45.875,17.008203124999998 45.875,18.874999999999996 L 45.875,20.562499999999996 L 47.56249999999999,20.562499999999996 C 49.429296875,20.562499999999996 50.93749999999999,22.070703124999998 50.93749999999999,23.937499999999996 C 50.93749999999999,25.804296874999995 49.429296875,27.312499999999996 47.56249999999999,27.312499999999996 L 45.875,27.312499999999996 L 45.875,32.37499999999999 L 61.90624999999999,32.37499999999999 C 64.23710937499999,32.37499999999999 66.12499999999999,34.262890625 66.12499999999999,36.59374999999999 C 66.12499999999999,37.152734374999994 66.01953124999999,37.70117187499999 65.79804687499998,38.21796875 L 57.68749999999999,57.68749999999999 L 27.3125,57.68749999999999 L 19.201953125000006,38.21796875 C 18.980468750000007,37.70117187499999 18.875000000000007,37.152734374999994 18.875000000000007,36.59374999999999 C 18.875000000000007,34.262890625 20.762890625000008,32.37499999999999 23.093750000000007,32.37499999999999 L 39.125,32.37499999999999 L 39.125,27.312499999999996 L 37.4375,27.312499999999996 C 35.57070312500001,27.312499999999996 34.0625,25.804296874999995 34.0625,23.937499999999996 C 34.0625,22.070703124999998 35.57070312500001,20.562499999999996 37.4375,20.562499999999996 L 39.125,20.562499999999996 L 39.125,18.874999999999996 C 39.125,17.008203124999998 40.63320312500001,15.499999999999998 42.5,15.499999999999996 M 22.946093750000006,65.42890624999998 L 27.3125,61.06249999999999 L 57.68749999999999,61.06249999999999 L 62.05390624999999,65.42890624999998 C 62.496874999999996,65.87187499999999 62.74999999999999,66.48359374999998 62.74999999999999,67.11640624999998 C 62.74999999999999,68.43476562499998 61.68476562499999,69.5 60.36640624999999,69.49999999999999 L 24.633593750000006,69.49999999999999 C 23.315234375000006,69.49999999999999 22.250000000000007,68.43476562499997 22.250000000000007,67.11640624999998 C 22.250000000000007,66.48359374999998 22.503125000000008,65.87187499999999 22.946093750000006,65.42890624999998"/>
</svg>