<?xml version="1.0" encoding="UTF-8"?>
<!--https://github.com/muchdogesec/stix2icons/-->
<svg width="200" height="200" xmlns="http://www.w3.org/2000/svg" viewBox="0 0 85 85" id="x-mitre-log-source" data-type="normal">
  <path style="fill:rgb(255,255,255)" d="M 40.0892858444276,15.500002915178234 L 28.548715038871403,15.500002915178234 A 5.785713973373761,5.785713973373761 0.0 0,0 23.484286740844905,18.477717040141265 L 16.838429956762916,30.446430679727115 L 40.0892858444276,30.446430679727115 L 40.0892858444276,15.500002915178234 M 15.500001457589116,63.71428602662624 L 15.500001457589116,35.267858990871915 L 69.49999854241088,35.267858990871915 L 69.49999854241088,63.71428602662624 A 5.785713973373761,5.785713973373761 0.0 0,1 63.714284569037126,69.5 L 21.285715430962878,69.5 A 5.785713973373761,5.785713973373761 0.0 0,1 15.500001457589116,63.71428602662624 M 68.16157004323708,30.446430679727115 L 44.9107141555724,30.446430679727115 L 44.9107141555724,15.500002915178234 L 56.4512849611286,15.500002915178234 A 5.785713973373761,5.785713973373761 0.0 0,1 61.51185611650617,18.477717040141265 L 68.16157004323708,30.446430679727115 M 32.290143408319764,55.43685790205284 L 41.13457150228379,64.28128599601686 A 1.9285713244579201,1.9285713244579201 0.0 0,0 43.86542849771621,64.28128599601686 L 52.70599944903132,55.43685790205284 A 1.9285713244579201,1.9285713244579201 0.0 0,0 51.34442809396402,52.142858079878714 L 46.35714264891584,52.142858079878714 L 46.35714264891584,44.428572782047034 A 3.8571426489158402,3.8571426489158402 0.0 1,0 38.64285735108416,44.428572782047034 L 38.64285735108416,52.142858079878714 L 33.65557190603597,52.142858079878714 A 1.9285713244579201,1.9285713244579201 0.0 0,0 32.29400055096868,55.43685790205284 L 32.290143408319764,55.43685790205284"/>
</svg>