<?xml version="1.0" encoding="UTF-8"?>
<!--https://github.com/muchdogesec/stix2icons/-->
<svg width="200" height="200" xmlns="http://www.w3.org/2000/svg" viewBox="0 0 85 85" id="x-mitre-asset" data-type="normal">
  <path style="fill:rgb(255,255,255)" d="M 66.125,32.375 L 18.875,32.375 C 17.01105078125,32.375 15.5,30.86394921875 15.5,28.999999999999996 L 15.5,22.25 C 15.5,20.38605078125 17.01105078125,18.875 18.875,18.875 L 66.125,18.875 C 67.98894921875,18.875 69.5,20.38605078125 69.5,22.25 L 69.5,28.999999999999996 C 69.5,30.863949218749998 67.98894921875,32.375 66.125,32.375 M 61.0625,23.09375 C 59.66451171875,23.09375 58.53125,24.22701171875 58.53125,25.625 C 58.53125,27.022988281249997 59.66451171875,28.156249999999993 61.0625,28.156249999999996 C 62.46048828125,28.156249999999996 63.59375,27.022988281249997 63.59375,25.625 C 63.59375,24.22701171875 62.46048828125,23.09375 61.0625,23.09375 M 54.3125,23.09375 C 52.91451171875,23.09375 51.78125,24.22701171875 51.78125,25.625 C 51.78125,27.022988281249997 52.91451171875,28.156249999999993 54.3125,28.156249999999996 C 55.71048828125,28.156249999999996 56.84375,27.022988281249997 56.84375,25.625 C 56.84375,24.22701171875 55.71048828125,23.09375 54.3125,23.09375 M 66.125,49.25 L 18.875,49.25 C 17.01105078125,49.25 15.5,47.73894921875 15.5,45.875 L 15.5,39.125 C 15.5,37.26105078125 17.01105078125,35.75 18.875,35.75 L 66.125,35.75 C 67.98894921875,35.75 69.5,37.26105078125 69.5,39.125 L 69.5,45.875 C 69.5,47.73894921875 67.98894921875,49.25 66.125,49.25 M 61.0625,39.96875 C 59.66451171875,39.96875 58.53125,41.10201171875 58.53125,42.5 C 58.53125,43.89798828125 59.66451171875,45.03125 61.0625,45.03125 C 62.46048828125,45.03125 63.59375,43.89798828125 63.59375,42.5 C 63.59375,41.10201171875 62.46048828125,39.96875 61.0625,39.96875 M 54.3125,39.96875 C 52.91451171875,39.96875 51.78125,41.10201171875 51.78125,42.5 C 51.78125,43.89798828125 52.91451171875,45.03125 54.3125,45.03125 C 55.71048828125,45.03125 56.84375,43.89798828125 56.84375,42.5 C 56.84375,41.10201171875 55.71048828125,39.96875 54.3125,39.96875 M 66.125,66.125 L 18.875,66.125 C 17.01105078125,66.125 15.5,64.61394921875 15.5,62.75 L 15.5,56.0 C 15.5,54.13605078125 17.01105078125,52.625 18.875,52.625 L 66.125,52.625 C 67.98894921875,52.625 69.5,54.13605078125 69.5,56.0 L 69.5,62.75 C 69.5,64.61394921875 67.98894921875,66.125 66.125,66.125 M 61.0625,56.84375 C 59.66451171875,56.84375 58.53125,57.97701171875 58.53125,59.375 C 58.53125,60.77298828125 59.66451171875,61.90625 61.0625,61.90625 C 62.46048828125,61.90625 63.59375,60.77298828125 63.59375,59.375 C 63.59375,57.97701171875 62.46048828125,56.84375 61.0625,56.84375 M 54.3125,56.84375 C 52.91451171875,56.84375 51.78125,57.97701171875 51.78125,59.375 C 51.78125,60.77298828125 52.91451171875,61.90625 54.3125,61.90625 C 55.71048828125,61.90625 56.84375,60.77298828125 56.84375,59.375 C 56.84375,57.97701171875 55.71048828125,56.84375 54.3125,56.84375"/>
</svg>