<?xml version="1.0" encoding="UTF-8"?>
<!--https://github.com/muchdogesec/stix2icons/-->
<svg xmlns="http://www.w3.org/2000/svg" width="200px" height="200px" viewBox="0 0 85 85" id="x-mitre-collection">
<path style="fill:rgb(255,255,255)" d="M 29.750 46.027 H 19.848 c -2.295 0.000 -3.825 0.000 -5.355 -0.765 c -1.360 -0.680 -2.422 -1.742 -3.103 -3.103 C 10.625 40.672 10.625 39.142 10.625 36.848 v -17.000 c 0.000 -2.295 0.000 -3.825 0.765 -5.355 c 0.680 -1.360 1.742 -2.422 3.103 -3.103 C 16.023 10.625 17.510 10.625 19.848 10.625 H 29.750 c 2.295 0.000 3.825 0.000 5.355 0.765 c 1.360 0.680 2.422 1.742 3.103 3.103 c 0.765 1.530 0.765 3.017 0.765 5.355 v 17.000 c 0.000 2.295 0.000 3.825 -0.765 5.355 c -0.680 1.360 -1.742 2.422 -3.103 3.103 C 33.575 46.027 32.045 46.027 29.750 46.027 z M 17.765 39.142 L 17.765 39.142 L 17.765 39.142 z M 17.765 38.930 c 0.425 0.043 1.275 0.043 2.083 0.043 H 29.750 c 0.807 0.000 1.657 0.000 2.083 -0.043 c 0.043 -0.425 0.043 -1.275 0.043 -2.083 v -17.000 c 0.000 -0.807 0.000 -1.657 -0.043 -2.083 c -0.425 -0.043 -1.275 -0.043 -2.083 -0.043 H 19.848 c -0.807 0.000 -1.657 0.000 -2.083 0.043 c -0.043 0.425 -0.043 1.275 -0.043 2.083 v 17.000 C 17.723 37.655 17.723 38.505 17.765 38.930 z M 32.045 38.887 C 32.045 38.887 32.045 38.887 32.045 38.887 C 32.045 38.887 32.045 38.887 32.045 38.887 z M 32.045 17.765 C 32.045 17.765 32.045 17.765 32.045 17.765 S 32.045 17.765 32.045 17.765 z M 31.790 17.552 C 31.790 17.552 31.790 17.552 31.790 17.552 C 31.790 17.552 31.790 17.552 31.790 17.552 z M 17.765 17.552 C 17.765 17.552 17.765 17.552 17.765 17.552 C 17.765 17.552 17.765 17.552 17.765 17.552 z" />
<path style="fill:rgb(255,255,255)" d="M 65.153 74.375 H 55.250 c -2.295 0.000 -3.825 0.000 -5.355 -0.765 c -1.360 -0.680 -2.422 -1.742 -3.103 -3.103 c -0.765 -1.530 -0.765 -3.017 -0.765 -5.355 v -17.000 c 0.000 -2.295 0.000 -3.825 0.765 -5.355 c 0.680 -1.360 1.742 -2.422 3.103 -3.103 c 1.530 -0.765 3.017 -0.765 5.355 -0.765 h 9.902 c 2.295 0.000 3.825 0.000 5.355 0.765 c 1.360 0.680 2.422 1.742 3.103 3.103 c 0.765 1.530 0.765 3.017 0.765 5.355 v 17.000 c 0.000 2.295 0.000 3.825 -0.765 5.355 c -0.680 1.360 -1.742 2.422 -3.103 3.103 C 68.978 74.375 67.490 74.375 65.153 74.375 z M 67.235 67.447 L 67.235 67.447 L 67.235 67.447 z M 53.210 67.447 L 53.210 67.447 L 53.210 67.447 z M 53.167 67.235 c 0.425 0.043 1.275 0.043 2.083 0.043 h 9.902 c 0.807 0.000 1.657 0.000 2.083 -0.043 c 0.043 -0.425 0.043 -1.275 0.043 -2.083 v -17.000 c 0.000 -0.807 0.000 -1.657 -0.043 -2.083 c -0.425 -0.043 -1.275 -0.043 -2.083 -0.043 H 55.250 c -0.807 0.000 -1.657 0.000 -2.083 0.043 c -0.043 0.425 -0.043 1.275 -0.043 2.083 v 17.000 C 53.125 66.002 53.125 66.810 53.167 67.235 z M 67.447 67.235 L 67.447 67.235 L 67.447 67.235 z M 67.447 46.112 L 67.447 46.112 L 67.447 46.112 z M 67.235 45.858 L 67.235 45.858 L 67.235 45.858 z M 53.210 45.858 L 53.210 45.858 L 53.210 45.858 z" />
<path style="fill:rgb(255,255,255)" d="M 29.750 74.375 H 19.848 c -2.295 0.000 -3.825 0.000 -5.355 -0.765 c -1.360 -0.680 -2.422 -1.742 -3.103 -3.103 c -0.765 -1.530 -0.765 -3.017 -0.765 -5.355 v -2.848 c 0.000 -2.295 0.000 -3.825 0.765 -5.355 c 0.680 -1.360 1.742 -2.422 3.103 -3.103 c 1.530 -0.765 3.017 -0.765 5.355 -0.765 H 29.750 c 2.295 0.000 3.825 0.000 5.355 0.765 c 1.360 0.680 2.422 1.742 3.103 3.103 c 0.765 1.530 0.765 3.017 0.765 5.355 v 2.848 c 0.000 2.295 0.000 3.825 -0.765 5.355 c -0.680 1.360 -1.742 2.422 -3.103 3.103 C 33.575 74.375 32.045 74.375 29.750 74.375 z M 17.765 67.447 L 17.765 67.447 L 17.765 67.447 z M 17.765 67.235 c 0.425 0.043 1.275 0.043 2.083 0.043 H 29.750 c 0.807 0.000 1.657 0.000 2.083 -0.043 c 0.043 -0.425 0.043 -1.275 0.043 -2.083 v -2.848 c 0.000 -0.807 0.000 -1.657 -0.043 -2.083 c -0.425 -0.043 -1.275 -0.043 -2.083 -0.043 H 19.848 c -0.807 0.000 -1.657 0.000 -2.083 0.043 c -0.043 0.425 -0.043 1.275 -0.043 2.083 v 2.848 C 17.723 66.002 17.723 66.810 17.765 67.235 z M 32.045 67.235 C 32.045 67.235 32.045 67.235 32.045 67.235 C 32.045 67.235 32.045 67.235 32.045 67.235 z M 32.045 60.265 C 32.045 60.265 32.045 60.265 32.045 60.265 S 32.045 60.265 32.045 60.265 z" />
<path style="fill:rgb(255,255,255)" d="M 65.153 31.875 H 55.250 c -2.295 0.000 -3.825 0.000 -5.355 -0.765 c -1.360 -0.680 -2.422 -1.742 -3.103 -3.103 c -0.765 -1.530 -0.765 -3.017 -0.765 -5.355 v -2.848 c 0.000 -2.295 0.000 -3.825 0.765 -5.355 c 0.680 -1.360 1.742 -2.422 3.103 -3.103 C 51.425 10.625 52.955 10.625 55.250 10.625 h 9.902 c 2.295 0.000 3.825 0.000 5.355 0.765 c 1.360 0.680 2.422 1.742 3.103 3.103 c 0.765 1.530 0.765 3.017 0.765 5.355 v 2.848 c 0.000 2.295 0.000 3.825 -0.765 5.355 c -0.680 1.360 -1.742 2.422 -3.103 3.103 C 68.978 31.875 67.490 31.875 65.153 31.875 z M 67.235 24.948 C 67.235 24.948 67.235 24.948 67.235 24.948 S 67.235 24.948 67.235 24.948 z M 53.210 24.948 C 53.210 24.948 53.210 24.948 53.210 24.948 S 53.210 24.948 53.210 24.948 z M 53.167 24.735 c 0.425 0.043 1.275 0.043 2.083 0.043 h 9.902 c 0.807 0.000 1.657 0.000 2.083 -0.043 c 0.043 -0.425 0.043 -1.275 0.043 -2.083 v -2.848 c 0.000 -0.807 0.000 -1.657 -0.043 -2.083 c -0.425 -0.043 -1.275 -0.043 -2.083 -0.043 H 55.250 c -0.807 0.000 -1.657 0.000 -2.083 0.043 c -0.043 0.425 -0.043 1.275 -0.043 2.083 v 2.848 C 53.125 23.502 53.125 24.310 53.167 24.735 z M 67.447 24.735 L 67.447 24.735 L 67.447 24.735 z M 67.447 17.765 L 67.447 17.765 L 67.447 17.765 z M 67.235 17.552 C 67.235 17.552 67.235 17.552 67.235 17.552 C 67.235 17.552 67.235 17.552 67.235 17.552 z M 53.210 17.552 C 53.210 17.552 53.210 17.552 53.210 17.552 C 53.210 17.552 53.210 17.552 53.210 17.552 z" />
</svg>